<svg xmlns="http://www.w3.org/2000/svg" width="612" height="610.311" id="chris-glyph">
    <style>
        .chris-glyph--shadows {
            fill: #FBAE42;
        }

        .chris-glyph--midtones {
            fill: #F8D8B2;
        }
        
        .chris-glyph--highlights {
            fill: #FFF;
        }
        .chris-glyph--shadows-transparent {
            fill: #FBAE42;
            fill-opacity: .65;
        }

        .chris-glyph--midtones-transparent {
            fill: #F8D8B2;
            fill-opacity: .65;
        }

        .chris-glyph--highlights-transparent {
            fill: #FFF;
            fill-opacity: .65;
        }
    </style>
    <g id="chris-glyph--core">
        <path class="chris-glyph--midtones"
              d="M241.091 278.388l74.182 42.829 74.182-42.829-37.091-21.415-37.091 21.415-37.091-21.415-37.091 21.415M92.728 192.73l74.181-42.829L204 171.315l-37.091 21.415L204 214.145l-37.091 21.414-74.181-42.829M537.818 192.73l-74.182-42.829-37.091 21.414 37.091 21.415-37.091 21.415 37.091 21.414 74.182-42.829M241.091 107.072l74.182-42.829 74.182 42.829-37.091 21.415-37.091-21.415-37.091 21.415-37.091-21.415"/>
        <path class="chris-glyph--shadows" d="M537.818 192.73v85.658l-37.091 21.414v-42.829l-37.091 21.415v-42.829l74.182-42.829"/>
        <path class="chris-glyph--highlights" d="M426.545 171.315v21.415l18.546 10.707 18.545-10.707-37.091-21.415"/>
        <path class="chris-glyph--shadows" d="M204 171.315v21.415l-18.545 10.707-18.546-10.707L204 171.315"/>
        <path class="chris-glyph--highlights" d="M315.273 107.072v21.415l37.091 21.414v-21.414l-37.091-21.415"/>
        <path class="chris-glyph--shadows" d="M315.273 107.072v21.415l-37.091 21.414v-21.414l37.091-21.415"/>
        <path class="chris-glyph--highlights"
              d="M426.545 214.145v21.414l18.546 10.707v21.415l18.545 10.707v-42.829l-37.091-21.414M315.273 406.875v-85.658l-74.182-42.829v42.829l37.091 21.414v42.828l37.091 21.416M315.273 578.189l-74.182-42.828v-42.83l37.091 21.416v-42.83l37.091 21.414v85.658M92.728 192.73v85.658l37.091 21.414v-42.829l37.09 21.415v-42.829L92.728 192.73M166.909 492.531l-74.181-42.828v-85.658l37.091 21.414v42.83l37.09 21.414v42.828"/>
        <path class="chris-glyph--shadows" d="M129.819 299.802l18.545-10.707v-21.414l-18.545-10.708v42.829"/>
        <path class="chris-glyph--midtones" d="M241.091 492.531l18.546-10.707 18.545 10.707v21.416l-37.091-21.416"/>
        <path class="chris-glyph--shadows" d="M129.819 428.289l18.545-10.707v-42.83l-18.545 10.707v42.83"/>
        <path class="chris-glyph--midtones" d="M129.819 428.289l18.545-10.707 37.091 21.414-18.546 10.707-37.09-21.414"/>
        <path class="chris-glyph--shadows"
              d="M166.909 278.388l18.546-10.707v-21.415L204 235.559v-21.414l-37.091 21.414v42.829M389.455 278.388l-74.182 42.829v85.658l37.091-21.416v-42.828l37.091-21.414v-42.829M315.273 578.189l74.182-42.828v-42.83l-37.091 21.416v-42.83l-37.091 21.414v85.658M537.818 364.045v85.658l-74.182 42.828v-42.828l37.091-21.414v-42.83l37.091-21.414"/>
        <path class="chris-glyph--midtones" d="M389.455 492.531l-18.546-10.707-18.545 10.707v21.416l37.091-21.416"/>
        <path class="chris-glyph--highlights" d="M500.727 299.802l-18.545-10.707v-21.414l18.545-10.708v42.829"/>
        <path class="chris-glyph--midtones" d="M500.727 428.289l-18.545-10.707-37.091 21.414 18.545 10.707 37.091-21.414"/>
        <path class="chris-glyph--highlights" d="M500.727 428.289l-18.545-10.707v-42.83l18.545 10.707v42.83"/>
        <path class="chris-glyph--midtones"
              d="M352.364 471.117l-18.546-10.707-18.545 10.707-18.546-10.707-18.545 10.707 37.091 21.414 37.091-21.414"/>
        <path class="chris-glyph--highlights" d="M241.091 107.072v42.829l18.546 10.707v-21.414l18.545 10.707v-21.414l-37.091-21.415"/>
        <path class="chris-glyph--shadows"
              d="M389.455 107.072v42.829l-18.546 10.707v-21.414l-18.545 10.707v-21.414l37.091-21.415M259.637 139.194v21.414l18.545-10.707-18.545-10.707"/>
        <path class="chris-glyph--highlights" d="M352.364 149.901l18.545-10.707v21.414l-18.545-10.707"/>
        <path class="chris-glyph--midtones"
              d="M537.818 364.045l-37.091-21.414-18.545 10.707 18.545 10.707-18.545 10.707 18.545 10.707 37.091-21.414"/>
        <path class="chris-glyph--highlights"
              d="M463.636 492.531l-37.091-21.414v-21.414l18.546 10.707v-21.414l18.545 10.707v42.828M500.727 364.045l-18.545-10.707v21.414l18.545-10.707"/>
        <path class="chris-glyph--midtones" d="M445.091 438.996v21.414l-18.546-10.707 18.546-10.707"/>
        <path class="chris-glyph--shadows" d="M166.909 492.531L204 471.117v-21.414l-18.545 10.707v-21.414l-18.546 10.707v42.828"/>
        <path class="chris-glyph--midtones"
              d="M92.728 364.045l37.091-21.414 18.545 10.707-18.545 10.707 18.545 10.707-18.545 10.707-37.091-21.414M185.455 460.41L204 449.703l-18.545-10.707v21.414"/>
        <path class="chris-glyph--shadows" d="M148.364 374.752l-18.545-10.707 18.545-10.707v21.414"/>
        <path class="chris-glyph--midtones-transparent"
              d="M259.637 139.194L204 171.315v21.415l-18.545 10.707L204 214.145v21.414l-18.545 10.707 55.636 32.122 37.091-21.415 37.091 21.415 37.091-21.415 37.091 21.415 55.636-32.122-18.546-10.707v-21.414l18.546-10.708-18.546-10.707v-21.415l-55.636-32.121-18.545 10.707-37.091-21.414-37.091 21.414-18.545-10.707"/>
        <path class="chris-glyph--highlights-transparent"
              d="M185.455 460.41l55.636 32.121 18.546-10.707 18.545 10.707v-21.414l18.545-10.707 18.546 10.707v-64.242l-37.091-21.416v-42.828l-37.091-21.414v-42.829l-55.636-32.122v21.415l-18.546 10.707-18.545-10.707v21.414l-18.545 10.707v64.243l18.545 10.707v42.83l37.091 21.414v21.414"/>
        <path class="chris-glyph--shadows-transparent"
              d="M500.727 364.045v-64.243l-18.545-10.707v-21.414l-18.546 10.707-18.545-10.707v-21.415l-55.636 32.122v42.829l-37.091 21.414v42.828l-37.091 21.416v64.242l18.545-10.707 18.546 10.707v21.414l18.545-10.707 18.546 10.707 55.636-32.121v-21.414l37.091-21.414v-42.83l18.545-10.707"/>
    </g>
    <g id="chris-glyph--right">
        <path class="chris-glyph--shadows" d="M556.364 481.824v64.244l-55.637 32.121v-64.242l55.637-32.123"/>
        <path class="chris-glyph--midtones"
              d="M500.727 515.447L278.182 386.959l278.182-160.607L612 258.473 389.455 386.959l166.909 96.365-55.637 32.123"/>
        <path class="chris-glyph--highlights" d="M500.727 515.447L278.182 386.959v192.73l55.636 32.122V483.324l166.909 96.365v-64.242"/>
        <path class="chris-glyph--shadows"
              d="M445.091 419.082l-55.636-32.123L612 258.473v192.73l-55.636 32.121-55.637-32.121 55.637-32.121v-64.244l-111.273 64.244"/>
        <path class="chris-glyph--highlights" d="M556.364 419.082l-55.637-32.123 55.637-32.121v64.244"/>
        <path class="chris-glyph--midtones" d="M556.364 419.082l-55.637 32.121-55.636-32.121 55.636-32.123 55.637 32.123"/>
        <path class="chris-glyph--shadows" d="M445.091 546.068l-111.273 64.243V481.824l111.273 64.244"/>
    </g>
    <g id="chris-glyph--left">
        <path class="chris-glyph--highlights" d="M55.637 449.703L0 417.582v-64.244l55.637 32.121v64.244"/>
        <path class="chris-glyph--shadows" d="M55.637 385.459l222.545-128.486v321.216l-55.636 32.122V353.338L55.637 449.703v-64.244"/>
        <path class="chris-glyph--midtones"
              d="M55.637 385.459l222.545-128.486-166.909-96.365-55.636 32.122 111.272 64.243L0 353.338l55.637 32.121"/>
        <path class="chris-glyph--highlights"
              d="M166.909 385.459l55.637-32.121v256.973L55.637 513.947v-64.244l55.636-32.121v64.242l55.636 32.123V385.459"/>
        <path class="chris-glyph--midtones" d="M111.273 481.824l55.636-32.121v64.244l-55.636-32.123"/>
        <path class="chris-glyph--shadows" d="M111.273 481.824v-64.242l55.636-32.123v64.244l-55.636 32.121"/>
        <path class="chris-glyph--highlights" d="M55.637 321.217V192.73l111.272 64.243-111.272 64.244"/>
    </g>
    <g id="chris-glyph--top">
        <path class="chris-glyph--midtones" d="M333.818 33.622L389.455 1.5l55.636 32.122-55.636 32.121-55.637-32.121"/>
        <path class="chris-glyph--highlights" d="M389.455 65.743v256.974L111.273 162.108V97.865l222.545 128.487V33.622l55.637 32.121"/>
        <path class="chris-glyph--shadows" d="M389.455 65.743v256.974l166.909-96.365v-64.244l-111.273 64.244V33.622l-55.636 32.121"/>
        <path class="chris-glyph--midtones"
              d="M333.818 162.108v64.244L111.273 97.865 278.182 1.5l55.636 32.122v64.243l-55.636-32.122-55.636 32.122 111.272 64.243"/>
        <path class="chris-glyph--shadows" d="M278.182 65.743v64.244l-55.636-32.122 55.636-32.122"/>
        <path class="chris-glyph--highlights" d="M278.182 65.743l55.636 32.122v64.243l-55.636-32.121V65.743"/>
        <path class="chris-glyph--midtones" d="M445.091 97.865l111.273 64.243-111.273 64.244V97.865"/>
    </g>
</svg>
