<svg xmlns="http://www.w3.org/2000/svg" width="189.88" height="200"><path fill="#F9D9B2" d="M120.83 10.45L138.09.5l17.26 9.96-17.26 9.97-17.26-9.97M120.83 50.32v19.93L51.78 30.38 103.57.48l17.26 9.97v19.93l-17.26-9.96-17.26 9.96 34.52 19.94M155.35 30.38l34.53 19.94-34.53 19.93V30.38M17.26 110.11l69.05-39.86-51.79-29.9-17.26 9.97 34.52 19.93L0 100.15l17.26 9.96M34.52 140.01l17.26-9.97v19.94L34.52 140M155.35 169.9l-69.04-39.86 86.3-49.83 17.26 9.97-69.04 39.86 51.78 29.9-17.26 9.97"/><path fill="#F9D9B2" d="M172.61 140.01l-17.26 9.97L138.1 140l17.26-9.97 17.26 9.97M86.3 70.25l34.53 19.93-17.26 9.96-17.26-9.96V70.25"/><g><path fill="#FFF" d="M138.1 20.42v79.72L51.78 50.32V30.38l69.04 39.87v-59.8l17.26 9.97"/><path fill="#FFF" d="M103.57 20.42l17.26 9.96v19.94l-17.26-9.97V20.42M17.26 130.04L0 120.08v-19.94l17.26 9.97v19.93"/><path fill="#FFF" d="M51.78 110.11l17.27-9.97v79.73l-51.79-29.9v-19.93l17.26-9.96V140l17.26 9.97V110.1M17.26 90.18V50.32l34.52 19.93-34.52 19.93M155.35 169.9l-69.04-39.86v59.8l17.26 9.97v-39.87l51.78 29.9V169.9M172.61 140.01l-17.26-9.97 17.26-9.96V140M86.3 130.04V90.18l17.27 9.96v19.94l-17.26 9.96"/></g><g><path fill="#FBAE41" d="M138.1 20.42v79.72l51.78-29.9V50.33l-34.53 19.93v-59.8l-17.26 9.97M103.57 20.42v19.93L86.3 30.38l17.26-9.96M17.26 110.11l69.05-39.86v99.66l-17.26 9.96v-79.73l-51.79 29.9v-19.93"/><path fill="#FBAE41" d="M34.52 140.01v-19.93l17.26-9.97v19.93l-17.26 9.97M172.61 159.94v19.93l-17.26 9.97V169.9l17.26-9.97"/><path fill="#FBAE41" d="M138.1 140.01l-17.27-9.97 69.05-39.86v59.8l-17.27 9.96-17.26-9.97 17.26-9.96v-19.93L138.1 140M138.1 179.87l-34.53 19.94v-39.87l34.52 19.93M138.1 100.14l-34.53 19.94v-19.94l17.26-9.96 17.26 9.96"/></g></svg>