<svg xmlns="http://www.w3.org/2000/svg" width="200" height="195.1" viewBox="-99.5 692.5 200 195.1"><path fill="#191717" d="M.5 692.5a100 100 0 0 0-31.6 195c5 .8 6.8-2.3 6.8-4.9l-.1-17c-27.8 6-33.7-13.4-33.7-13.4-4.5-11.6-11.1-14.7-11.1-14.7-9-6.2.7-6 .7-6 10 .7 15.3 10.3 15.3 10.3 9 15.3 23.4 10.8 29.1 8.3 1-6.5 3.5-10.9 6.4-13.4-22.2-2.5-45.6-11-45.6-49.4 0-11 4-19.9 10.3-26.8a36 36 0 0 1 1-26.5s8.4-2.7 27.5 10.2a95.9 95.9 0 0 1 50 0C44.8 731.2 53 734 53 734a36 36 0 0 1 1 26.5c6.4 7 10.3 15.9 10.3 26.8 0 38.4-23.4 46.9-45.6 49.3 3.5 3.1 6.7 9.2 6.7 18.6v27.4c0 2.7 1.7 5.8 6.8 4.8A100 100 0 0 0 .5 692.5z"/></svg>