<?xml version="1.0" standalone="no"?>
<!DOCTYPE svg PUBLIC "-//W3C//DTD SVG 20010904//EN"
 "http://www.w3.org/TR/2001/REC-SVG-20010904/DTD/svg10.dtd">
<svg version="1.0" xmlns="http://www.w3.org/2000/svg"
 width="200.000000pt" height="200.000000pt" viewBox="0 0 200.000000 200.000000"
 preserveAspectRatio="xMidYMid meet">
<metadata>
Created by potrace 1.14, written by Peter Selinger 2001-2017
</metadata>
<g transform="translate(0.000000,200.000000) scale(0.100000,-0.100000)"
fill="#000000" stroke="none">
<path d="M1508 1843 l-78 -45 0 -400 0 -400 -22 14 c-13 8 -52 31 -88 50 l-65
36 -82 -46 -83 -47 0 -103 c0 -57 3 -101 8 -99 87 51 727 422 779 451 l73 41
0 102 0 102 -147 -85 c-82 -47 -158 -92 -170 -100 l-23 -14 0 152 c0 188 -11
438 -19 437 -3 -1 -41 -21 -83 -46z"/>
<path d="M1002 1751 c-93 -56 -93 -54 -14 -100 110 -64 102 -67 102 43 0 71
-3 96 -12 95 -7 0 -41 -18 -76 -38z"/>
<path d="M565 1099 c-181 -105 -334 -194 -338 -198 -4 -4 -6 -51 -5 -104 l3
-96 75 44 c41 24 80 44 87 45 9 0 13 -28 15 -94 l3 -94 80 47 80 48 5 102 5
103 83 48 82 49 0 -399 0 -399 81 46 c44 26 82 51 84 57 2 6 5 230 8 499 3
346 1 487 -7 487 -6 0 -159 -86 -341 -191z"/>
<path d="M1640 921 c-168 -97 -323 -186 -344 -199 l-39 -23 86 -50 c101 -57
76 -61 246 40 53 31 117 69 144 84 l47 28 0 -100 0 -99 -85 -48 c-47 -26 -85
-50 -85 -53 0 -3 36 -26 79 -51 44 -25 76 -49 71 -54 -5 -4 -41 -27 -82 -50
l-73 -42 -3 -97 c-2 -63 1 -97 8 -97 6 0 46 21 90 46 l80 47 0 101 0 101 81
45 c45 25 83 49 85 55 3 6 3 141 2 301 l-3 291 -305 -176z"/>
<path d="M1090 204 c0 -107 3 -194 6 -194 14 0 324 185 321 193 -1 4 -75 50
-165 102 l-162 94 0 -195z"/>
</g>
</svg>
