<svg xmlns="http://www.w3.org/2000/svg" width="200" height="200" viewBox="-155.5 546.5 200 200"><path d="M-55.5 546.5a100 100 0 1 0 0 200 100 100 0 0 0 0-200zm0 183.6c-46 0-83.6-37.5-83.6-83.6a83.7 83.7 0 1 1 83.6 83.6z"/><path d="M6.3 627v-.2l-.1-.5-.1-.3-.1-.4-.2-.2-.1-.4-.2-.2-.7-.9-.2-.1-.3-.3-.2-.2H4l-56.5-37.7a5.3 5.3 0 0 0-6 0l-56.4 37.7h-.1l-.3.2-.3.3-.2.2-.8 1-.2.4-.1.2-.2.5v.2l-.1.5v.2l-.1.7v38.6l.2.4v.3l.2.4v.3l.8 1.1.3.3.2.2.6.4 56.6 37.8a5.3 5.3 0 0 0 5.9 0L4 669.7l.6-.4.2-.3.7-.8.2-.3.1-.3.1-.2.2-.5v-.2l.2-.5V627zm-56.5-27l41.7 27.7-18.6 12.4-23-15.4V600zm-10.6 0v24.7l-23 15.4-18.7-12.4 41.7-27.8zm-45.9 37.6l13.3 8.9-13.3 9v-17.9zm45.9 55.5l-41.7-27.7 18.6-12.5 23 15.4v24.8zm5.3-34l-18.8-12.6 18.8-12.5 18.8 12.5-18.8 12.6zm5.3 34v-24.8l23-15.4 18.7 12.4-41.7 27.8zm45.9-37.7l-13.3-8.9 13.3-8.9v17.8z"/></svg>