<svg xmlns="http://www.w3.org/2000/svg" width="200" height="200" viewBox="-260 336.3 200 200"><path fill="#069" d="M-259.5 350.7c0-7.9 6.5-14.5 14.7-14.5h169.6c7.9 0 14.7 6.4 14.7 14.5v171.5c0 7.8-6.5 14.1-14.7 14.1h-169.6c-7.9 0-14.7-6.3-14.7-14.1V350.7z"/><path fill="#FFF" d="M-199.1 503.8v-90.3h-30.2v90.3h30.2zM-214.4 401c10.5 0 17.1-6.8 17.1-15.7 0-8.7-6.6-15.5-16.8-15.5-10.2 0-17 6.8-17 15.7 0 8.7 6.5 15.5 16.7 15.5zm31.8 102.7h30v-50.4c0-2.7.2-5.3 1-7.4 2.1-5.2 7-11 15.5-11 10.8 0 15.2 8.4 15.2 20.5v48.3h30V452c0-27.9-14.7-40.8-34.4-40.8-16.3 0-23.7 9-27.3 15.3v-13.1h-30c.5 8.4 0 90.3 0 90.3z"/></svg>